<svg width="18" height="18" viewBox="0 0 18 18" fill="none" xmlns="http://www.w3.org/2000/svg">
<g opacity="0.9">
<mask id="mask0_495_261" style="mask-type:alpha" maskUnits="userSpaceOnUse" x="0" y="0" width="18" height="18">
<path d="M18 0H0V18H18V0Z" fill="#D9D9D9"/>
</mask>
<g mask="url(#mask0_495_261)">
<path d="M13 16H16V17.5C16 17.7761 15.7761 18 15.5 18H13.5C13.2239 18 13 17.7761 13 17.5V16Z" fill="#B5A18A"/>
<path d="M2 16H5V17.5C5 17.7761 4.77614 18 4.5 18H2.5C2.22386 18 2 17.7761 2 17.5V16Z" fill="#B5A18A"/>
<path d="M2.5 2C2.5 1.17157 3.17157 0.5 4 0.5H14C14.8284 0.5 15.5 1.17157 15.5 2V15.5H2.5V2Z" stroke="#B5A18A"/>
<path d="M3 11.5H15" stroke="#B5A18A"/>
<path d="M3 3.5H15" stroke="#B5A18A"/>
<path d="M4 13.5H6" stroke="#B5A18A"/>
<path d="M12 13.5H14" stroke="#B5A18A"/>
<path d="M2.72361 5.94732C2.9706 5.82383 3.07071 5.52349 2.94721 5.2765C2.82372 5.02951 2.52338 4.9294 2.27639 5.0529L2.72361 5.94732ZM0.5 6.50011L0.276393 6.0529L0 6.19109V6.50011H0.5ZM0 8.50011V9.00011H1V8.50011H0ZM2.27639 5.0529L0.276393 6.0529L0.723607 6.94732L2.72361 5.94732L2.27639 5.0529ZM0 6.50011V8.50011H1V6.50011H0Z" fill="#B5A18A"/>
<path d="M15.2764 5.94732C15.0294 5.82383 14.9293 5.52349 15.0528 5.2765C15.1763 5.02951 15.4766 4.9294 15.7236 5.0529L15.2764 5.94732ZM17.5 6.50011L17.7236 6.0529L18 6.19109V6.50011H17.5ZM18 8.50011V9.00011H17V8.50011H18ZM15.7236 5.0529L17.7236 6.0529L17.2764 6.94732L15.2764 5.94732L15.7236 5.0529ZM18 6.50011V8.50011H17V6.50011H18Z" fill="#B5A18A"/>
</g>
</g>
</svg>
