<svg width="16" height="16" viewBox="0 0 16 16" fill="none" xmlns="http://www.w3.org/2000/svg">
<path d="M13.1557 6.3125H7.5593C6.87247 6.3125 6.31567 6.86929 6.31567 7.55613V13.1525C6.31567 13.8393 6.87247 14.3961 7.5593 14.3961H13.1557C13.8425 14.3961 14.3993 13.8393 14.3993 13.1525V7.55613C14.3993 6.86929 13.8425 6.3125 13.1557 6.3125Z" stroke="#111111" stroke-width="0.8" stroke-linecap="round" stroke-linejoin="round"/>
<path d="M3.46542 9.6837H2.8436C2.51378 9.6837 2.19745 9.55266 1.96422 9.31946C1.731 9.08618 1.59998 8.76986 1.59998 8.44002V2.84372C1.59998 2.5139 1.731 2.19757 1.96422 1.96435C2.19745 1.73112 2.51378 1.6001 2.8436 1.6001H8.4399C8.76974 1.6001 9.08606 1.73112 9.31934 1.96435C9.55254 2.19757 9.68358 2.5139 9.68358 2.84372V3.46554" stroke="#111111" stroke-width="0.8" stroke-linecap="round" stroke-linejoin="round"/>
</svg>
