<svg width="12" height="9" viewBox="0 0 12 9" fill="none" xmlns="http://www.w3.org/2000/svg">
<path d="M1.17077 4.73241L5.56178 8.75149C5.81006 8.97873 6.19078 8.97873 6.43905 8.75149L10.8301 4.73241C11.3937 4.21651 11.7147 3.48755 11.7147 2.72344C11.7147 1.21933 10.4954 0 8.99126 0H8.62825C7.85684 0 7.11339 0.288871 6.54435 0.809709L6.0333 1.27747C6.01469 1.29451 5.98615 1.29451 5.96754 1.27747L5.45649 0.80971C4.88745 0.288871 4.144 0 3.37259 0H3.00958C1.50546 0 0.286133 1.21933 0.286133 2.72344C0.286133 3.48755 0.607127 4.21651 1.17077 4.73241Z" fill="#444444"/>
</svg>
