<svg width="13" height="12" viewBox="0 0 13 12" fill="none" xmlns="http://www.w3.org/2000/svg">
<path d="M1.75135 5.72428L6.09972 9.93521C6.36655 10.1936 6.7903 10.1936 7.05713 9.93521L11.4055 5.72428C11.9725 5.17512 12.2927 4.41947 12.2927 3.63007C12.2927 2.02004 10.9875 0.714844 9.37748 0.714844H9.24203C8.4499 0.714844 7.68883 1.02296 7.11979 1.57401L6.6118 2.06595C6.5932 2.08396 6.56365 2.08396 6.54505 2.06595L6.03706 1.57401C5.46802 1.02296 4.70695 0.714844 3.91482 0.714844H3.77937C2.16933 0.714844 0.864136 2.02004 0.864136 3.63007C0.864136 4.41947 1.18427 5.17512 1.75135 5.72428Z" fill="black"/>
</svg>
