<svg width="18" height="18" viewBox="0 0 18 18" fill="none" xmlns="http://www.w3.org/2000/svg">
<g opacity="0.9">
<mask id="mask0_495_280" style="mask-type:alpha" maskUnits="userSpaceOnUse" x="0" y="0" width="18" height="18">
<path d="M18 0H0V18H18V0Z" fill="#EED8D8"/>
</mask>
<g mask="url(#mask0_495_280)">
<path d="M6 14C6.55228 14 7 13.5523 7 13C7 12.4477 6.55228 12 6 12C5.44772 12 5 12.4477 5 13C5 13.5523 5.44772 14 6 14Z" fill="#B5A18A"/>
<path d="M12 14C12.5523 14 13 13.5523 13 13C13 12.4477 12.5523 12 12 12C11.4477 12 11 12.4477 11 13C11 13.5523 11.4477 14 12 14Z" fill="#B5A18A"/>
<path d="M3.5 8C3.5 6.067 5.067 4.5 7 4.5H11C12.933 4.5 14.5 6.067 14.5 8V14C14.5 14.8284 13.8284 15.5 13 15.5H5C4.17157 15.5 3.5 14.8284 3.5 14V8Z" stroke="#B5A18A"/>
<path d="M3 10.5H14" stroke="#B5A18A"/>
<path d="M7 2.5H11" stroke="#B5A18A"/>
<path d="M0.5 17.5V8.5C0.5 4.08172 4.08172 0.5 8.5 0.5H9.5C13.9183 0.5 17.5 4.08172 17.5 8.5V17.5" stroke="#B5A18A" stroke-linecap="square"/>
<path d="M6.36475 15.3418L3.36475 20.3418" stroke="#B5A18A"/>
<path d="M11.6353 15.3418L14.6353 20.3418" stroke="#B5A18A"/>
</g>
</g>
</svg>
